<svg width="100" height="100" viewBox="0 0 100 100" fill="none" xmlns="http://www.w3.org/2000/svg">
<path d="M63.8215 33.4899H65.7785C69.239 33.6112 72.1242 34.7888 74.425 37.027C76.7258 39.2629 77.9175 42.0809 78 45.4764V62.0157C77.9175 65.409 76.7258 68.2382 74.425 70.4944C72.1242 72.7506 69.2413 73.9191 65.7785 74H35.2215C31.761 73.9191 28.8758 72.7506 26.575 70.4944C24.2742 68.2382 23.0825 65.4112 23 62.0157V45.4764C23.0825 42.0809 24.2742 39.2629 26.575 37.027C28.8758 34.7888 31.7588 33.6112 35.2215 33.4899H36.9952L34.3048 30.973C34.0281 30.7089 33.8095 30.392 33.6625 30.0418C33.5155 29.6917 33.4432 29.3157 33.45 28.9371C33.45 28.1371 33.7342 27.4584 34.3048 26.8989L34.3667 26.8382C34.9785 26.2787 35.6798 26 36.475 26C37.2702 26 37.9715 26.2787 38.5833 26.8382L45.1215 33.0112C45.2842 33.1708 45.4285 33.3303 45.55 33.4899H55.3285C55.4239 33.3121 55.5477 33.1505 55.6952 33.0112L62.2333 26.8382C62.8452 26.2787 63.5465 26 64.3417 26C65.1369 26 65.8588 26.3393 66.4706 26.8989C67.0825 27.4584 67.3667 28.1371 67.3667 28.9371C67.3667 29.7348 67.0825 30.4135 66.5119 30.973L63.8215 33.4899ZM35.2215 39.3034C33.5119 39.3438 32.075 39.9236 30.9131 41.0404C29.7535 42.1595 29.1508 43.5798 29.1119 45.2966V62.1955C29.1508 63.9124 29.7535 65.3303 30.9131 66.4494C32.075 67.5685 33.5119 68.1483 35.2215 68.1865H65.7785C67.4881 68.1483 68.925 67.5685 70.0869 66.4494C71.2465 65.3303 71.8492 63.9124 71.8881 62.1955V45.2966C71.8492 43.5775 71.2465 42.1595 70.0869 41.0404C68.925 39.9236 67.4881 39.3438 65.7785 39.3034H35.2215ZM41.3333 47.9933C42.1881 47.9933 42.9008 48.2719 43.4715 48.8315C44.0444 49.391 44.3492 50.1101 44.3881 50.9888V53.6247C44.3492 54.5034 44.0444 55.2225 43.4715 55.782C42.9008 56.3438 42.1881 56.6225 41.3333 56.6225C40.4785 56.6225 39.7658 56.3416 39.1952 55.782C38.6223 55.2225 38.3175 54.5034 38.2785 53.6247V50.9888C38.2785 50.1506 38.5742 49.4404 39.1631 48.8607C39.7544 48.2831 40.4785 47.9933 41.3333 47.9933ZM59.6667 47.9933C60.5215 47.9933 61.2342 48.2719 61.8048 48.8315C62.3777 49.391 62.6825 50.1101 62.7215 50.9888V53.6247C62.6825 54.5034 62.3777 55.2225 61.8048 55.782C61.2342 56.3438 60.5215 56.6225 59.6667 56.6225C58.8119 56.6225 58.0992 56.3416 57.5285 55.782C56.9556 55.2225 56.6508 54.5034 56.6119 53.6247V50.9888C56.6508 50.1101 56.9556 49.391 57.5285 48.8315C58.0992 48.2719 58.8119 47.9933 59.6667 47.9933Z" fill="white"/>
</svg>
