<svg width="149" height="101" viewBox="0 0 149 101" fill="none" xmlns="http://www.w3.org/2000/svg">
<g clip-path="url(#clip0_4_2)">
<path fill-rule="evenodd" clip-rule="evenodd" d="M14.3805 90.59C16.2405 91.153 18.0994 91.716 19.9594 92.279C19.6254 93.677 19.0755 95.041 18.1985 96.19C17.4125 97.213 16.3874 98.028 15.2094 98.556C13.7934 99.186 12.2015 99.357 10.6665 99.357C8.82145 99.357 6.89745 99.159 5.20145 98.382C3.64445 97.667 2.43945 96.389 1.53945 94.955C0.369451 93.093 -0.000549316 90.844 -0.000549316 88.675C-0.000549316 85.85 0.659451 82.904 2.70645 80.837C4.72145 78.803 7.58145 78.094 10.3705 78.094C12.4725 78.094 14.7134 78.428 16.4694 79.667C18.1064 80.818 19.1425 82.606 19.7635 84.477C17.8895 84.892 16.0165 85.307 14.1425 85.722C13.9985 85.253 13.8284 84.754 13.5304 84.357C13.1904 83.889 12.7495 83.503 12.2325 83.242C11.7045 82.972 11.1115 82.851 10.5205 82.851C9.16045 82.851 7.97545 83.448 7.22945 84.591C6.45545 85.745 6.36445 87.296 6.36445 88.64C6.36445 90.145 6.39245 92.095 7.39645 93.333C8.11445 94.213 9.18145 94.6 10.2964 94.6C11.3014 94.6 12.3395 94.341 13.0354 93.571C13.7774 92.752 14.1515 91.652 14.3805 90.59Z" fill="white"/>
<path fill-rule="evenodd" clip-rule="evenodd" d="M36.4024 78.45C38.5124 78.45 40.6224 78.45 42.7324 78.45C42.7324 82.532 42.7324 86.614 42.7324 90.696C42.7324 91.864 42.5524 93.032 42.1624 94.134C41.7904 95.201 41.1824 96.17 40.3804 96.966C39.6564 97.69 38.8094 98.309 37.8434 98.666C36.4314 99.194 34.9014 99.356 33.4024 99.356C32.3084 99.356 31.2154 99.274 30.1294 99.143C29.1104 99.021 28.0804 98.789 27.1654 98.31C26.3284 97.873 25.5994 97.255 24.9884 96.538C24.3914 95.845 23.8954 95.051 23.6324 94.169C23.2964 93.046 23.0454 91.873 23.0454 90.696C23.0454 86.614 23.0454 82.532 23.0454 78.45C25.1544 78.45 27.2624 78.45 29.3714 78.45C29.3714 82.631 29.3714 86.811 29.3714 90.992C29.3714 91.946 29.6164 92.918 30.3034 93.614C30.9844 94.307 31.9454 94.56 32.8944 94.56C33.8364 94.56 34.7884 94.31 35.4704 93.628C36.1684 92.934 36.4024 91.949 36.4024 90.992C36.4024 86.811 36.4024 82.631 36.4024 78.45Z" fill="white"/>
<path fill-rule="evenodd" clip-rule="evenodd" d="M60.5604 90.59C62.4204 91.153 64.2794 91.716 66.1394 92.279C65.8054 93.678 65.2544 95.043 64.3744 96.19C63.5884 97.213 62.5644 98.028 61.3864 98.556C59.9704 99.185 58.3804 99.357 56.8464 99.357C55.0004 99.357 53.0744 99.16 51.3774 98.382C49.8224 97.665 48.6174 96.387 47.7164 94.955C46.5494 93.092 46.1794 90.843 46.1794 88.675C46.1794 85.85 46.8424 82.905 48.8864 80.837C50.8984 78.802 53.7594 78.094 56.5464 78.094C58.6464 78.094 60.8914 78.426 62.6454 79.667C64.2834 80.818 65.3194 82.606 65.9434 84.477C64.0714 84.892 62.1984 85.307 60.3264 85.722C60.1774 85.255 60.0084 84.754 59.7104 84.357C59.3704 83.889 58.9274 83.504 58.4114 83.242C57.8824 82.973 57.2914 82.851 56.7004 82.851C55.3394 82.851 54.1574 83.45 53.4094 84.591C52.6354 85.746 52.5404 87.295 52.5404 88.64C52.5404 90.145 52.5684 92.097 53.5764 93.333C54.2934 94.214 55.3614 94.6 56.4764 94.6C57.4814 94.6 58.5194 94.34 59.2154 93.571C59.9554 92.75 60.3334 91.653 60.5604 90.59Z" fill="white"/>
<path fill-rule="evenodd" clip-rule="evenodd" d="M91.5504 88.611C92.9274 88.611 94.3044 88.611 95.6814 88.611C95.6814 89.239 95.6814 89.866 95.6814 90.494C96.1974 89.842 96.8104 89.225 97.5534 88.836C98.2564 88.457 99.0674 88.334 99.8584 88.334C100.922 88.334 101.987 88.641 102.737 89.429C103.584 90.324 103.776 91.641 103.776 92.824C103.776 95.281 103.776 97.739 103.776 100.196C102.289 100.196 100.801 100.196 99.3144 100.196C99.3144 98.071 99.3144 95.945 99.3144 93.82C99.3144 93.308 99.2684 92.678 98.9154 92.268C98.6274 91.944 98.2084 91.82 97.7844 91.82C97.2714 91.82 96.8044 92.029 96.4824 92.432C96.0054 93.01 95.9844 93.916 95.9844 94.624C95.9844 96.481 95.9844 98.339 95.9844 100.196C94.5064 100.196 93.0284 100.196 91.5504 100.196V88.611Z" fill="white"/>
<path d="M111.123 88.611H106.69V100.196H111.123V88.611Z" fill="white"/>
<path fill-rule="evenodd" clip-rule="evenodd" d="M113.884 88.611C115.26 88.611 116.635 88.611 118.011 88.611C118.011 89.17 118.011 89.728 118.011 90.287C118.517 89.691 119.107 89.13 119.815 88.782C120.493 88.447 121.26 88.334 122.01 88.334C122.757 88.334 123.551 88.43 124.202 88.825C124.774 89.173 125.209 89.697 125.515 90.287C126.061 89.694 126.679 89.094 127.419 88.747C128.072 88.428 128.817 88.334 129.536 88.334C130.61 88.334 131.684 88.643 132.436 89.444C133.296 90.355 133.478 91.71 133.478 92.91C133.478 95.339 133.478 97.767 133.478 100.196C132.002 100.196 130.525 100.196 129.049 100.196C129.049 97.985 129.049 95.775 129.049 93.564C129.049 93.165 129 92.713 128.742 92.389C128.474 92.028 128.089 91.792 127.632 91.792C127.144 91.792 126.691 91.979 126.376 92.357C125.962 92.85 125.9 93.571 125.9 94.186C125.9 96.189 125.9 98.193 125.9 100.196C124.422 100.196 122.944 100.196 121.466 100.196C121.466 98.063 121.466 95.931 121.466 93.798C121.466 93.486 121.473 93.079 121.381 92.759C121.287 92.482 121.117 92.236 120.886 92.055C120.649 91.876 120.359 91.792 120.064 91.792C119.576 91.792 119.127 91.993 118.812 92.368C118.379 92.877 118.317 93.629 118.317 94.268C118.317 96.244 118.317 98.22 118.317 100.196C116.839 100.196 115.362 100.196 113.884 100.196V88.611Z" fill="white"/>
<path fill-rule="evenodd" clip-rule="evenodd" d="M144.043 94.663C143.41 94.887 142.779 95.084 142.128 95.251C141.588 95.395 140.828 95.544 140.413 95.966C140.185 96.185 140.04 96.475 140.04 96.795C140.04 97.124 140.159 97.433 140.406 97.655C140.691 97.925 141.105 97.998 141.484 97.998C141.969 97.998 142.443 97.872 142.865 97.634C143.236 97.419 143.577 97.131 143.776 96.745C143.989 96.327 144.043 95.84 144.043 95.378V94.663ZM140.189 92.34C138.773 92.187 137.357 92.034 135.941 91.881C136.072 91.274 136.267 90.651 136.635 90.142C136.971 89.674 137.437 89.315 137.94 89.042C138.452 88.754 139.046 88.616 139.62 88.518C140.384 88.388 141.159 88.334 141.933 88.334C143.002 88.334 144.088 88.366 145.142 88.561C145.883 88.692 146.595 88.992 147.163 89.493C147.588 89.862 147.869 90.366 148.06 90.889C148.256 91.439 148.387 92.02 148.387 92.607C148.387 94.313 148.387 96.02 148.387 97.726C148.387 98.145 148.395 98.597 148.49 99.012C148.581 99.424 148.757 99.818 148.939 100.196C147.55 100.196 146.161 100.196 144.772 100.196C144.674 100.02 144.513 99.721 144.448 99.513C144.378 99.305 144.325 98.983 144.295 98.78C143.789 99.268 143.217 99.714 142.563 99.986C141.698 100.341 140.757 100.474 139.826 100.474C138.724 100.474 137.527 100.271 136.681 99.506C135.995 98.888 135.606 98.051 135.606 97.125C135.606 96.328 135.837 95.543 136.378 94.944C137.082 94.165 138.248 93.868 139.235 93.671C140.298 93.457 141.418 93.26 142.473 92.963C142.999 92.823 143.538 92.632 144.043 92.433C144.043 92.053 144.003 91.575 143.705 91.294C143.405 90.998 142.905 90.967 142.513 90.967C141.969 90.967 141.35 91.012 140.876 91.315C140.521 91.54 140.323 91.959 140.189 92.34Z" fill="white"/>
<path fill-rule="evenodd" clip-rule="evenodd" d="M111.383 85.223C111.383 86.572 110.256 87.7 108.907 87.7C107.557 87.7 106.427 86.574 106.427 85.223C106.427 83.873 107.557 82.744 108.907 82.744C110.256 82.744 111.383 83.875 111.383 85.223Z" fill="white"/>
<path fill-rule="evenodd" clip-rule="evenodd" d="M83.2685 94.112C82.6875 92.194 82.1055 90.276 81.5245 88.358C80.9415 90.276 80.3575 92.194 79.7745 94.112C80.9395 94.112 82.1035 94.112 83.2685 94.112ZM84.3145 97.566C82.4525 97.566 80.5905 97.566 78.7285 97.566C78.4615 98.443 78.1945 99.319 77.9275 100.196C76.2485 100.196 74.5685 100.196 72.8895 100.196C74.8925 94.866 76.8965 89.536 78.8995 84.206C80.6955 84.206 82.4905 84.206 84.2865 84.206C86.2855 89.536 88.2855 94.866 90.2845 100.196C88.5615 100.196 86.8385 100.196 85.1155 100.196C84.8485 99.319 84.5815 98.443 84.3145 97.566Z" fill="white"/>
<path fill-rule="evenodd" clip-rule="evenodd" d="M141.861 6.26797C136.921 0.934969 127.647 0.027968 120.885 -3.19678e-05C100.87 -0.083032 81.3034 8.77897 64.4954 18.891C45.4334 30.362 19.4604 49.672 14.1424 73.077C34.7914 53.188 59.9654 34.73 88.5744 28.748C97.5474 26.872 111.424 24.824 119.524 30.755C126.554 35.904 122.787 46.367 118.815 52.241C110.795 49.334 93.2534 50.836 93.1804 62.513C93.1494 67.049 96.5054 71.007 100.744 72.393C96.8074 76.616 91.7414 80.067 86.9854 83.274C92.9054 80.668 98.6074 77.207 103.79 73.339C111.192 74.114 118.317 72.924 123.398 67.078C125.921 64.178 126.902 59.665 124.373 56.4C126.748 54.01 129.05 51.548 131.246 48.993C139.923 38.901 153.763 19.111 141.861 6.26797Z" fill="white"/>
</g>
<defs>
<clipPath id="clip0_4_2">
<rect width="149" height="101" fill="white"/>
</clipPath>
</defs>
</svg>
