<svg width="133" height="84" viewBox="0 0 133 84" fill="none" xmlns="http://www.w3.org/2000/svg">
<path fill-rule="evenodd" clip-rule="evenodd" d="M127.719 6.26858C122.779 0.93558 113.505 0.0285784 106.743 0.000578384C86.728 -0.0824216 67.161 8.77958 50.353 18.8916C31.291 30.3626 5.318 49.6726 0 73.0776C20.649 53.1886 45.823 34.7306 74.432 28.7486C83.405 26.8726 97.282 24.8246 105.382 30.7556C112.412 35.9046 108.645 46.3676 104.673 52.2416C96.653 49.3346 79.111 50.8366 79.038 62.5136C79.007 67.0496 82.363 71.0076 86.602 72.3936C82.665 76.6166 77.599 80.0676 72.843 83.2746C78.763 80.6686 84.465 77.2076 89.648 73.3396C97.05 74.1146 104.175 72.9246 109.256 67.0786C111.779 64.1786 112.76 59.6656 110.231 56.4006C112.606 54.0106 114.908 51.5486 117.104 48.9936C125.781 38.9016 139.621 19.1116 127.719 6.26858Z" fill="#DA2128"/>
</svg>
