<svg width="100" height="100" viewBox="0 0 100 100" fill="none" xmlns="http://www.w3.org/2000/svg">
<path d="M66.1915 74C65.5784 73.9995 64.9717 73.8761 64.4076 73.637C59.4528 71.5509 55.1112 65.3884 49.7955 56.8047C44.8046 65.0015 40.7998 71.4432 35.5844 73.637C35.0204 73.8765 34.4136 74 33.8004 74C30.6575 74 27.6189 70.8729 24.7726 64.7143C22.2721 59.0918 20.5409 53.1609 19.6253 47.0803C18.8769 42.8733 18.7998 38.5752 19.3968 34.3444C20.387 28.848 23.0408 26.9334 25.0933 26.2992C25.7047 26.1106 26.3413 26.0151 26.9815 26.016C30.7217 26.016 35.0231 29.1232 40.1383 35.5131C43.663 40.0394 46.867 44.8041 49.7274 49.7727C52.7048 44.5971 56.0866 39.6625 59.8416 35.0145C64.9047 28.9517 69.1901 26 72.9424 26C73.6081 25.998 74.2704 26.0962 74.9067 26.2912C76.9592 26.9254 79.613 28.836 80.6032 34.3364C81.2002 38.5673 81.1231 42.8653 80.3747 47.0723C79.4591 53.1529 77.7279 59.0838 75.2274 64.7063C72.3731 70.8729 69.3344 73.996 66.1915 74ZM52.3171 53.2588C56.6706 60.3706 61.5373 68.0808 65.947 69.9475C66.0176 69.979 66.0941 69.9953 66.1715 69.9953C66.9211 69.9953 69.0137 68.5395 71.5593 63.0311C73.8891 57.7443 75.5067 52.1744 76.3699 46.466C77.7449 37.4516 76.6866 31.0218 73.676 30.0924C73.4254 30.016 73.1644 29.9783 72.9023 29.9807C68.4806 29.9927 60.4389 39.0949 52.3171 53.2707V53.2588ZM26.9734 29.9927C26.7372 29.9904 26.502 30.024 26.2759 30.0924C23.2653 31.0258 22.207 37.4516 23.582 46.466C24.4452 52.1744 26.0627 57.7443 28.3926 63.0311C30.9381 68.5395 33.0267 69.9953 33.7804 69.9953C33.8564 69.9948 33.9315 69.9785 34.0009 69.9475C38.138 68.2084 42.0906 61.7108 46.6727 54.1881L47.1738 53.3625C44.1543 47.9957 40.7472 42.854 36.9794 37.9781C31.4152 31.0417 28.3284 29.9927 26.9734 29.9927Z" fill="white"/>
</svg>
