<svg width="100" height="100" viewBox="0 0 100 100" fill="none" xmlns="http://www.w3.org/2000/svg">
<path d="M51.3613 45.1498C34.1254 53.8454 45.5898 77.1758 67.093 71.0852C69.097 71.8471 70.882 73.082 72.8241 74C72.3219 72.3457 71.7864 70.71 71.2152 69.0814C77.8792 64.433 79.3405 57.8554 76.8772 52.4498C73.0311 43.8823 60.7504 40.3733 51.3613 45.1498ZM57.3827 53.673C56.8853 55.1992 54.6314 55.6558 53.539 54.4955C52.3347 53.4214 52.8036 51.1776 54.3839 50.6976C56.1308 49.9753 58.149 51.9581 57.3827 53.673ZM68.759 53.892H68.7924C68.1807 55.2597 66.0768 55.5813 65.0439 54.5211C64.5465 54.0738 64.4013 53.4004 64.2252 52.8132C64.4727 51.7414 65.2248 50.63 66.4386 50.5788C68.1164 50.3504 69.6182 52.3868 68.759 53.892Z" fill="white"/>
<path d="M62 41.5151C60.9744 36.5544 57.4459 32.3642 53.0046 29.9463H53.0682C37.3075 21.1865 17.6842 33.4031 21.4762 47.8131C22.4947 52.0889 25.501 55.6728 29.1495 58.0653C28.4438 60.0389 27.7734 62.0125 27.1383 64C29.4318 62.8154 31.7253 61.5775 34.0212 60.3744C36.7735 61.2466 39.7021 61.6724 42.6308 61.5775C39.0129 51.3693 48.2929 40.5549 62 41.5151ZM47.7048 35.5896C49.5514 34.8584 51.7344 36.3878 51.5885 38.3429L51.5932 38.3707C51.6121 40.6034 48.594 41.9963 46.9003 40.4831C45.1431 39.2383 45.6418 36.2143 47.7048 35.5896ZM37.3427 38.9375C36.9381 40.8765 34.3059 41.8135 32.7651 40.5109C30.9796 39.2684 31.4807 36.1888 33.5766 35.5618C35.6302 34.7798 37.9638 36.839 37.3427 38.9375Z" fill="white"/>
</svg>
