<svg xmlns="http://www.w3.org/2000/svg" width="134" height="134" viewBox="0 0 134 134">
  <rect width="134" height="134" fill="#fff"/>
  <rect x="8" y="8" width="28" height="28" fill="#111"/>
  <rect x="12" y="12" width="20" height="20" fill="#fff"/>
  <rect x="16" y="16" width="12" height="12" fill="#111"/>
  <rect x="98" y="8" width="28" height="28" fill="#111"/>
  <rect x="102" y="12" width="20" height="20" fill="#fff"/>
  <rect x="106" y="16" width="12" height="12" fill="#111"/>
  <rect x="8" y="98" width="28" height="28" fill="#111"/>
  <rect x="12" y="102" width="20" height="20" fill="#fff"/>
  <rect x="16" y="106" width="12" height="12" fill="#111"/>
  <g fill="#111">
    <rect x="44" y="12" width="8" height="8"/><rect x="60" y="12" width="8" height="8"/><rect x="76" y="12" width="8" height="8"/>
    <rect x="44" y="28" width="8" height="8"/><rect x="68" y="28" width="8" height="8"/><rect x="84" y="28" width="8" height="8"/>
    <rect x="12" y="44" width="8" height="8"/><rect x="28" y="44" width="8" height="8"/><rect x="52" y="44" width="8" height="8"/>
    <rect x="76" y="44" width="8" height="8"/><rect x="100" y="44" width="8" height="8"/><rect x="116" y="44" width="8" height="8"/>
    <rect x="20" y="60" width="8" height="8"/><rect x="44" y="60" width="8" height="8"/><rect x="68" y="60" width="8" height="8"/>
    <rect x="92" y="60" width="8" height="8"/><rect x="108" y="60" width="8" height="8"/><rect x="36" y="76" width="8" height="8"/>
    <rect x="60" y="76" width="8" height="8"/><rect x="84" y="76" width="8" height="8"/><rect x="108" y="76" width="8" height="8"/>
    <rect x="44" y="92" width="8" height="8"/><rect x="68" y="92" width="8" height="8"/><rect x="92" y="92" width="8" height="8"/>
    <rect x="44" y="108" width="8" height="8"/><rect x="60" y="108" width="8" height="8"/><rect x="84" y="108" width="8" height="8"/>
    <rect x="100" y="108" width="8" height="8"/><rect x="116" y="108" width="8" height="8"/><rect x="76" y="116" width="8" height="8"/>
  </g>
</svg>
