<svg width="16" height="16" viewBox="0 0 16 16" fill="none" xmlns="http://www.w3.org/2000/svg">
<path fill-rule="evenodd" clip-rule="evenodd" d="M1.33398 8.00065C1.33398 4.31875 4.31875 1.33398 8.00065 1.33398C11.6826 1.33398 14.6673 4.31875 14.6673 8.00065C14.6673 11.6826 11.6826 14.6673 8.00065 14.6673C4.31875 14.6673 1.33398 11.6826 1.33398 8.00065ZM6.86719 6.66019V6.50646C6.86799 6.32356 6.9334 6.12066 7.07935 5.96812C7.21414 5.82724 7.47687 5.66732 7.99669 5.66732C8.48483 5.66732 8.82427 5.90038 8.99738 6.16497C9.18225 6.44754 9.14582 6.68462 9.05808 6.80308C8.94866 6.9508 8.8128 7.08725 8.6486 7.23506C8.59865 7.28003 8.53707 7.33361 8.47105 7.39106L8.47104 7.39107C8.35298 7.4938 8.22071 7.6089 8.11524 7.70926C7.74075 8.0656 7.33397 8.56293 7.33397 9.33399L7.33614 9.6716L8.66945 9.66304L8.66732 9.33216C8.66782 9.10414 8.76128 8.93501 9.03435 8.67519C9.12614 8.58785 9.20864 8.51647 9.30305 8.43479L9.30309 8.43476C9.37292 8.37435 9.44925 8.30831 9.54067 8.22601C9.73079 8.05486 9.94236 7.84936 10.1295 7.5967C10.6349 6.91439 10.5167 6.05186 10.1131 5.435C9.69781 4.80016 8.94213 4.33398 7.99669 4.33398C7.17853 4.33398 6.54422 4.59875 6.11596 5.04636C5.69908 5.48206 5.53537 6.03103 5.53385 6.50309V6.66019H6.86719ZM7.33613 10.334V11.6699H8.66946V10.334H7.33613Z" fill="#BCC2CD"/>
</svg>
