<svg width="125" height="93" viewBox="0 0 125 93" fill="none" xmlns="http://www.w3.org/2000/svg">
<path d="M120.267 16.2858L120.267 16.2859C125.699 22.1728 125.301 29.675 122.444 37.01C119.588 44.3443 114.314 51.3803 110.228 56.1535L110.228 56.1536C108.163 58.5669 105.997 60.8936 103.761 63.1538L103.454 63.4646L103.721 63.8108C105.915 66.6565 105.104 70.6684 102.818 73.308L102.817 73.3082C98.1711 78.6776 91.6411 79.8047 84.7275 79.0777L84.5324 79.0572L84.3754 79.1749C81.3247 81.4615 78.0845 83.596 74.7247 85.4751C77.3819 83.5157 79.9573 81.3958 82.1647 79.0177L82.6954 78.4459L81.9542 78.2025C78.1224 76.9441 75.1262 73.3598 75.1538 69.3081L75.1538 69.3078C75.1862 64.0994 79.0725 61.0971 84.0775 59.7263C89.0822 58.3556 95.0119 58.6887 98.6958 60.0298L99.0632 60.1636L99.2816 59.8392C101.186 57.011 103.052 53.0651 103.594 49.1796C104.137 45.2846 103.353 41.364 99.8328 38.7741L99.8327 38.7741C95.8807 35.8676 90.5629 34.9426 85.2286 34.9475C79.8841 34.9524 74.4485 35.8915 70.2005 36.7836C43.6195 42.3659 20.1981 59.3317 0.905587 77.7622C3.72031 67.4471 10.7388 57.9787 19.2595 49.738C28.2336 41.0588 38.833 33.7808 47.8186 28.3498C63.6712 18.7707 82.0555 10.4224 100.82 10.5005C103.996 10.5138 107.74 10.7347 111.258 11.5728C114.781 12.4121 118.028 13.8586 120.267 16.2858Z" stroke="#DA2128" stroke-opacity="0.5"/>
</svg>
